<?xml version="1.0" encoding="iso-8859-1"?>
<!-- Uploaded to: SVG Repo, www.svgrepo.com, Generator: SVG Repo Mixer Tools -->
<svg fill="#000000" version="1.1" id="Layer_1" xmlns="http://www.w3.org/2000/svg" xmlns:xlink="http://www.w3.org/1999/xlink" 
	 viewBox="0 0 512.001 512.001" xml:space="preserve">
<g>
	<g>
		<path d="M511.487,215.212c-1.544-10.784-3.973-21.279-6.847-31.593l-75.529,23.756c-1.624,0.49-3.27,0.72-4.883,0.72
			c-7.172,0-13.809-4.643-16.011-11.87c-2.681-8.851,2.31-18.202,11.15-20.894l74.209-23.341
			c-10.611-24.699-25.018-47.4-42.534-67.365l-58.584,58.584c-3.27,3.27-7.554,4.905-11.836,4.905s-8.567-1.635-11.836-4.905
			c-6.539-6.539-6.539-17.134,0-23.673l58.584-58.584c-19.149-16.799-40.842-30.688-64.375-41.165l-26.191,72.948
			c-2.212,7.204-8.839,11.836-16,11.836c-1.635,0-3.28-0.229-4.915-0.73c-8.839-2.714-13.809-12.076-11.106-20.915l26.815-74.692
			c-11.323-3.32-22.902-6.024-34.804-7.728c-13.417-1.875-26.649,1.504-37.471,9.592c-10.845,8.098-17.864,19.913-19.771,33.265
			l-26.341,137.05l118.372,118.371l137.061-26.33C496.217,268.498,515.433,242.83,511.487,215.212z"/>
	</g>
</g>
<g>
	<g>
		<path d="M130.997,262.629L24.474,369.142c-32.632,32.632-32.632,85.733,0,118.377c32.668,32.647,85.743,32.633,118.377,0
			l106.518-106.518L130.997,262.629z"/>
	</g>
</g>
<g>
	<g>
		
			<rect x="206.639" y="197.008" transform="matrix(0.7071 -0.7071 0.7071 0.7071 -130.7466 245.7669)" width="49.308" height="167.4"/>
	</g>
</g>
</svg>