<?xml version="1.0" encoding="utf-8"?>

<!DOCTYPE svg PUBLIC "-//W3C//DTD SVG 1.1//EN" "http://www.w3.org/Graphics/SVG/1.1/DTD/svg11.dtd">
<!-- Uploaded to: SVG Repo, www.svgrepo.com, Generator: SVG Repo Mixer Tools -->
<svg height="800px" width="800px" version="1.1" id="_x32_" xmlns="http://www.w3.org/2000/svg" xmlns:xlink="http://www.w3.org/1999/xlink" 
	 viewBox="0 0 512 512"  xml:space="preserve">
<style type="text/css">
	.st0{fill:#000000;}
</style>
<g>
	<path class="st0" d="M489.656,138.962c-29.791-29.783-78.087-29.79-107.878,0c-14.732,14.74-22.162,34-22.316,53.303
		c-0.03,3.264-0.023,5.081-1.196,8.02c-1.182,2.939-4.838,6.078-7.902,8.264c-20.855,14.814-39.804,22.524-56.361,25.942
		c-1.61,26.667,10.007,42.47,10.582,43.23l2.297,2.88c16.283-7.207,39.095-16.01,58.701-25.308
		c5.767-2.74,12.185-4.992,16.372-4.261c4.195,0.731,10.9,5.383,17.103,8.788c28.963,15.878,66.057,11.558,90.597-12.982
		C519.446,217.048,519.446,168.76,489.656,138.962z M464.872,222.055c-16.099,16.114-42.211,16.114-58.31,0
		c-16.106-16.099-16.106-42.211,0-58.31c16.099-16.099,42.211-16.099,58.31,0.007C480.971,179.844,480.971,205.956,464.872,222.055z
		"/>
	<path class="st0" d="M303.455,161.64c2.171-3.064,5.318-6.713,8.256-7.902c2.939-1.181,4.756-1.174,8.02-1.204
		c19.311-0.147,38.564-7.584,53.304-22.316c29.79-29.791,29.79-78.08,0-107.87c-29.791-29.797-78.087-29.797-107.87,0
		c-24.54,24.54-28.866,61.634-12.982,90.597c3.404,6.196,8.056,12.901,8.788,17.095c0.731,4.195-1.529,10.605-4.261,16.373
		c-13.411,28.284-25.802,63.25-33.822,75.642c0,0-179.303,208.458-201.169,236.159c-21.866,27.7-26.238,40.816-17.495,49.559
		c8.744,8.751,21.874,4.379,49.567-17.487C81.483,468.42,289.941,289.11,289.941,289.11S249.118,238.095,303.455,161.64z
		 M289.941,47.132c16.099-16.106,42.211-16.106,58.311,0c16.099,16.099,16.099,42.204,0,58.302
		c-16.1,16.114-42.212,16.114-58.311,0.008C273.842,89.336,273.842,63.231,289.941,47.132z M247.671,284.738
		c-5.642,5.642-14.777,5.642-20.411,0c-5.636-5.642-5.636-14.77,0-20.412c5.634-5.627,14.769-5.627,20.411,0
		C253.305,269.968,253.298,279.096,247.671,284.738z"/>
</g>
</svg>